<?xml version="1.0" encoding="UTF-8" standalone="no"?>
<svg
   viewBox="0 0 36 36"
   version="1.1"
   id="svg10"
   sodipodi:docname="simple_logo.svg"
   inkscape:version="1.2 (dc2aedaf03, 2022-05-15)"
   xmlns:inkscape="http://www.inkscape.org/namespaces/inkscape"
   xmlns:sodipodi="http://sodipodi.sourceforge.net/DTD/sodipodi-0.dtd"
   xmlns="http://www.w3.org/2000/svg"
   xmlns:svg="http://www.w3.org/2000/svg">
  <defs
     id="defs14" />
  <sodipodi:namedview
     id="namedview12"
     pagecolor="#ffffff"
     bordercolor="#000000"
     borderopacity="0.25"
     inkscape:showpageshadow="2"
     inkscape:pageopacity="0.0"
     inkscape:pagecheckerboard="0"
     inkscape:deskcolor="#d1d1d1"
     showgrid="false"
     inkscape:zoom="28.527778"
     inkscape:cx="22.101266"
     inkscape:cy="17.982473"
     inkscape:window-width="2560"
     inkscape:window-height="1369"
     inkscape:window-x="-8"
     inkscape:window-y="-8"
     inkscape:window-maximized="1"
     inkscape:current-layer="svg10" />
  <path
     fill="#5C913B"
     d="M11.405 3.339c6.48-1.275 8.453 1.265 11.655.084 3.202-1.181.093 2.82-.745 3.508-.84.688-8.141 4.809-11.307 3.298-3.166-1.511-3.182-6.186.397-6.89z"
     id="path2" />
  <path
     fill="#77B255"
     d="M15.001 16c-.304 0-.605-.138-.801-.4-.687-.916-1.308-1.955-1.965-3.056C9.967 8.749 7.396 4.446.783 2.976c-.539-.12-.879-.654-.759-1.193.12-.54.654-.878 1.193-.759C8.671 2.68 11.599 7.581 13.952 11.519c.63 1.054 1.224 2.049 1.848 2.881.332.442.242 1.069-.2 1.4-.18.135-.39.2-.599.2z"
     id="path4" />
  <path
     fill="#5be316"
     d="m 31.844198,23.227251 c 0.727996,-2.16334 1.315807,-5.174083 1.399142,-6.703175 0.08883,-1.629904 1.139698,-2.598881 -2.224285,-6.033973 -5.801001,-5.7999993 -13.68,-5.8209993 -18.767001,-4.0669993 -1.579,0.614 -2.9169998,0.066 -3.8149998,0.965 -0.881,0.881 -0.350999,2.7190003 -0.714,3.8189993 -3.169,5.202001 -3.405,13.025001 2.6879998,19.117001 1.70202,1.351485 2.306205,1.863673 4.906972,2.18893 2.055186,0.257026 4.060224,0.270416 6.037212,-0.107163 1.836859,-0.350817 3.379402,-0.894924 4.862982,-1.776571 1.385384,-0.823291 2.657701,-1.908861 3.627926,-3.195626 0.934541,-1.23944 1.502967,-2.735209 1.998052,-4.206423 z"
     id="path6-9"
     style="fill:#87ed22;fill-opacity:1"
     sodipodi:nodetypes="ascccccssaaa" />
  <path
     fill="#5be316"
     d="m 24.064362,15.409365 c 1.365477,-0.373079 2.987645,-0.453077 4.203427,-0.603857 C 29.781814,14.61774 36.944,16.378 30.951,10.384 25.15,4.584 17.271,4.563 12.184,6.317 10.605,6.931 9.267,6.383 8.369,7.282 7.488,8.163 8.018,10.001 7.655,11.101 4.486,16.303 4.25,24.126 10.343,30.218 c 4.962,4.962 2.765614,-2.329257 3.084187,-4.015549 0.339675,-1.797993 1.195598,-3.923126 2.391642,-5.540462 1.101114,-1.488968 2.651081,-2.634927 4.232017,-3.599355 1.235202,-0.753517 2.617778,-1.271921 4.013516,-1.653269 z"
     id="path6"
     sodipodi:nodetypes="ascccccsaaa" />
  <path
     fill="#77B255"
     d="M8.208 6.583s-4.27-.59-6.857 4.599c-2.587 5.188.582 9.125.29 12.653-.293 3.53 1.566 1.265 2.621-.445s4.23-4.895 4.938-9.269c.707-4.376-.07-6.458-.992-7.538z"
     id="path8" />
  <path
     id="path1715"
     style="fill-opacity:0;stroke:#a9f86d;stroke-width:0.779451;stroke-opacity:1"
     d="m 13.4228,31.81751 c 0.238333,-5.565435 0.08275,-8.830264 4.533579,-12.843872 4.648601,-4.191954 12.172078,-4.190309 15.173588,-4.660749 1.161321,2.745496 -0.83264,10.885635 -5.475577,14.877173 -4.642936,3.991539 -11.243892,3.670389 -14.23159,2.627448 z"
     sodipodi:nodetypes="cscsc" />
</svg>
