<?xml version="1.0" encoding="UTF-8" standalone="no"?>
<svg
   viewBox="0 0 36 36"
   version="1.1"
   id="svg24"
   sodipodi:docname="zest_logo.svg"
   xmlns:inkscape="http://www.inkscape.org/namespaces/inkscape"
   xmlns:sodipodi="http://sodipodi.sourceforge.net/DTD/sodipodi-0.dtd"
   xmlns="http://www.w3.org/2000/svg"
   xmlns:svg="http://www.w3.org/2000/svg">
  <defs
     id="defs28" />
  <sodipodi:namedview
     id="namedview26"
     pagecolor="#ffffff"
     bordercolor="#000000"
     borderopacity="0.25"
     inkscape:showpageshadow="2"
     inkscape:pageopacity="0.0"
     inkscape:pagecheckerboard="0"
     inkscape:deskcolor="#d1d1d1"
     showgrid="false" />
  <path
     fill="#5C913B"
     d="M11.405 3.339c6.48-1.275 8.453 1.265 11.655.084 3.202-1.181.093 2.82-.745 3.508-.84.688-8.141 4.809-11.307 3.298-3.166-1.511-3.182-6.186.397-6.89z"
     id="path16" />
  <path
     fill="#77B255"
     d="M15.001 16c-.304 0-.605-.138-.801-.4-.687-.916-1.308-1.955-1.965-3.056C9.967 8.749 7.396 4.446.783 2.976c-.539-.12-.879-.654-.759-1.193.12-.54.654-.878 1.193-.759C8.671 2.68 11.599 7.581 13.952 11.519c.63 1.054 1.224 2.049 1.848 2.881.332.442.242 1.069-.2 1.4-.18.135-.39.2-.599.2z"
     id="path18" />
  <path
     fill="#5be316"
     d="m 20.068257,17.547632 c 1.739658,-1.406216 3.436671,-2.344503 6.061265,-2.847285 2.835509,-0.543185 9.938139,2.098296 3.945139,-3.895704 C 24.273661,5.0046426 17.271,4.563 12.184,6.317 10.605,6.931 9.267,6.383 8.369,7.282 7.488,8.163 8.018,10.001 7.655,11.101 c -3.169,5.202 -3.4047756,13.024776 2.688,19.117 4.962224,4.961776 3.578791,2.199258 3.539883,0.927002 -0.03588,-1.173315 -0.123563,-2.054291 0.07811,-3.051659 0.347414,-1.718153 1.069295,-3.362837 1.918483,-4.896337 1.135671,-2.050843 2.518595,-4.299311 4.188784,-5.649374 z"
     id="path20"
     sodipodi:nodetypes="ssccccssaas" />
  <path
     fill="#77B255"
     d="M8.208 6.583s-4.27-.59-6.857 4.599c-2.587 5.188.582 9.125.29 12.653-.293 3.53 1.566 1.265 2.621-.445s4.23-4.895 4.938-9.269c.707-4.376-.07-6.458-.992-7.538z"
     id="path22" />
</svg>
