<?xml version="1.0" encoding="UTF-8" standalone="no"?>
<svg
   viewBox="0 0 34 32"
   version="1.1"
   id="svg10"
   width="100"
   height="100"
   xmlns="http://www.w3.org/2000/svg"
   xmlnsSvg="http://www.w3.org/2000/svg">
   <defs
      id="defs14" />
   <path
      fill="#5c913b"
      d="m 11.405,3.339 c 6.48,-1.275 8.453,1.265 11.655,0.084 3.202,-1.181 0.093,2.82 -0.745,3.508 -0.84,0.688 -8.141,4.809 -11.307,3.298 C 7.842,8.718 7.826,4.043 11.405,3.339 Z"
      id="path2" />
   <path
      fill="#77b255"
      d="M 15.001,16 C 14.697,16 14.396,15.862 14.2,15.6 13.513,14.684 12.892,13.645 12.235,12.544 9.967,8.749 7.396,4.446 0.783,2.976 0.244,2.856 -0.096,2.322 0.024,1.783 0.144,1.243 0.678,0.905 1.217,1.024 8.671,2.68 11.599,7.581 13.952,11.519 c 0.63,1.054 1.224,2.049 1.848,2.881 0.332,0.442 0.242,1.069 -0.2,1.4 -0.18,0.135 -0.39,0.2 -0.599,0.2 z"
      id="path4" />
   <path
      fill="#5be316"
      d="m 31.844198,23.227251 c 0.727996,-2.16334 1.315807,-5.174083 1.399142,-6.703175 0.08883,-1.629904 1.139698,-2.598881 -2.224285,-6.033973 -5.801001,-5.7999993 -13.68,-5.8209993 -18.767001,-4.0669993 -1.579,0.614 -2.9169998,0.066 -3.8149998,0.965 -0.881,0.881 -0.350999,2.7190003 -0.714,3.8189993 -3.169,5.202001 -3.405,13.025001 2.6879998,19.117001 1.70202,1.351485 2.306205,1.863673 4.906972,2.18893 2.055186,0.257026 4.060224,0.270416 6.037212,-0.107163 1.836859,-0.350817 3.379402,-0.894924 4.862982,-1.776571 1.385384,-0.823291 2.657701,-1.908861 3.627926,-3.195626 0.934541,-1.23944 1.502967,-2.735209 1.998052,-4.206423 z"
      id="path6-9"
      style="fill:#9ee931;fill-opacity:1" />
   <path
      fill="#5be316"
      d="m 24.064362,15.409365 c 1.365477,-0.373079 2.987645,-0.453077 4.203427,-0.603857 C 29.781814,14.61774 36.944,16.378 30.951,10.384 25.15,4.584 17.271,4.563 12.184,6.317 10.605,6.931 9.267,6.383 8.369,7.282 7.488,8.163 8.018,10.001 7.655,11.101 4.486,16.303 4.25,24.126 10.343,30.218 c 4.962,4.962 2.765614,-2.329257 3.084187,-4.015549 0.339675,-1.797993 1.195598,-3.923126 2.391642,-5.540462 1.101114,-1.488968 2.651081,-2.634927 4.232017,-3.599355 1.235202,-0.753517 2.617778,-1.271921 4.013516,-1.653269 z"
      id="path6" />
   <path
      fill="#77b255"
      d="m 8.208,6.583 c 0,0 -4.27,-0.59 -6.857,4.599 -2.587,5.188 0.582,9.125 0.29,12.653 C 1.348,27.365 3.207,25.1 4.262,23.39 5.317,21.68 8.492,18.495 9.2,14.121 9.907,9.745 9.13,7.663 8.208,6.583 Z"
      id="path8" />
   <path
      id="path1715"
      style="fill-opacity:0;stroke:#d9fcc0;stroke-width:0.779451;stroke-opacity:1"
      d="m 13.4228,31.81751 c 0.238333,-5.565435 0.08275,-8.830264 4.533579,-12.843872 4.648601,-4.191954 12.172078,-4.190309 15.173588,-4.660749 1.161321,2.745496 -0.83264,10.885635 -5.475577,14.877173 -4.642936,3.991539 -11.243892,3.670389 -14.23159,2.627448 z" />
   <path
      style="opacity:1;fill:#000000;fill-opacity:0;stroke:#d9fcc0;stroke-opacity:1"
      d="M 13.776047,31.653359 C 24.502434,25.44888 32.880234,14.7926 32.880234,14.7926"
      id="path2714" />
   <path
      style="opacity:1;fill:#000000;fill-opacity:0;stroke:#d9fcc0;stroke-opacity:1"
      d="m 19.594937,32.35443 c 5.888997,-6.730282 4.101266,-16.229795 4.101266,-16.229795"
      id="path2724" />
   <path
      style="opacity:1;fill:#000000;fill-opacity:0;stroke:#d9fcc0;stroke-opacity:1"
      d="m 32.038948,22.539435 c -7.045764,4.907498 -17.036027,0.105161 -17.036027,0.105161"
      id="path2726" />
   <path
      style="opacity:1;fill:#000000;fill-opacity:0;stroke:#d9fcc0;stroke-opacity:1"
      d="m 18.928919,18.297955 c 7.816943,11.462512 7.816943,11.497566 7.816943,11.497566"
      id="path2728" />
</svg>